<svg width="512" height="512" viewBox="0 0 512 512" xmlns="http://www.w3.org/2000/svg">
  <!-- background -->
  <rect width="512" height="512" rx="90" fill="#111217"/>

  <!-- ruler -->
  <rect x="330" y="70" width="36" height="370" rx="8" fill="#4f7cff"/>
  <rect x="336" y="100" width="24" height="4" fill="white"/>
  <rect x="336" y="140" width="16" height="4" fill="white"/>
  <rect x="336" y="180" width="24" height="4" fill="white"/>
  <rect x="336" y="220" width="16" height="4" fill="white"/>
  <rect x="336" y="260" width="24" height="4" fill="white"/>
  <rect x="336" y="300" width="16" height="4" fill="white"/>
  <rect x="336" y="340" width="24" height="4" fill="white"/>

  <!-- car body -->
  <path d="M90 290 
           C110 240, 180 210, 260 210
           C310 210, 340 230, 360 260
           L360 300
           L90 300 Z"
        fill="white"/>

  <!-- cockpit -->
  <path d="M160 230 
           C200 205, 260 205, 300 230
           L280 260
           L180 260 Z"
        fill="#111217"/>

  <!-- rear wing -->
  <rect x="70" y="250" width="50" height="10" fill="white"/>
  <rect x="70" y="240" width="50" height="10" fill="white"/>

  <!-- wheels -->
  <circle cx="150" cy="310" r="30" fill="#0a0b0f"/>
  <circle cx="300" cy="310" r="30" fill="#0a0b0f"/>
</svg>
